<svg xmlns="http://www.w3.org/2000/svg" width="155" height="47" viewBox="0 0 155 47">
    <g fill="#FFF" fill-rule="nonzero">
        <path d="M3.628 12.591C1.209 14.986 0 17.861 0 21.218c0 2.897.932 5.466 2.789 7.71C.932 30.995 0 33.4 0 36.135c0 3.006 1.075 5.568 3.225 7.69C5.372 45.94 7.971 47 11.014 47H22v-8.134H11.014c-.771 0-1.428-.266-1.96-.797a2.614 2.614 0 0 1-.81-1.935c0-.758.273-1.4.81-1.92.532-.522 1.189-.78 1.96-.78H22v-8.133h-9.618c-1.148 0-2.118-.401-2.924-1.195-.81-.794-1.213-1.758-1.213-2.888 0-1.116.402-2.067 1.213-2.864.806-.793 1.776-1.188 2.924-1.188H22V9h-9.618c-3.419 0-6.335 1.199-8.754 3.591M76.5 7c.926 0 1.742-.342 2.444-1.021C79.645 5.29 80 4.469 80 3.503c0-.97-.355-1.793-1.056-2.477C78.242.34 77.426 0 76.499 0c-.967 0-1.79.34-2.474 1.026A3.384 3.384 0 0 0 73 3.503c0 .966.345 1.788 1.025 2.476A3.383 3.383 0 0 0 76.499 7M90.48 29.853C92.827 27.47 94 24.59 94 21.217c0-3.357-1.173-6.231-3.52-8.626C88.132 10.198 85.3 9 81.978 9c-3.304 0-6.096 1.157-8.373 3.474L67.037 19.1V9h-8.012v12.217c0 1.131-.39 2.093-1.186 2.889-.792.794-1.734 1.195-2.83 1.195H51.02v-4.084c0-3.357-1.172-6.231-3.523-8.626C45.154 10.198 42.32 9 39 9c-3.305 0-6.128 1.198-8.474 3.591-2.35 2.395-3.525 5.27-3.525 8.626 0 3.374 1.175 6.254 3.525 8.636 2.346 2.388 5.17 3.58 8.474 3.58h4.016v1.348c0 1.134-.393 2.095-1.176 2.893A3.839 3.839 0 0 1 39 38.866H27V47h12c3.32 0 6.154-1.191 8.497-3.577 2.351-2.384 3.523-5.264 3.523-8.642v-1.348h4.017c3.051-.007 5.708-1.04 7.98-3.097 2.275 2.064 4.943 3.097 8.004 3.097h10.957c3.322 0 6.154-1.192 8.502-3.58zM43.015 25.3h-4.016c-1.094 0-2.035-.401-2.815-1.195-.785-.796-1.179-1.758-1.179-2.89 0-1.115.394-2.065 1.18-2.863.779-.793 1.72-1.192 2.814-1.192 1.109 0 2.062.4 2.84 1.192.783.798 1.176 1.748 1.176 2.864V25.3zm36.302-7.105c.68-.687 1.566-1.035 2.66-1.035 1.107 0 2.06.4 2.846 1.192a3.951 3.951 0 0 1 1.163 2.864c0 1.131-.386 2.093-1.163 2.889-.787.794-1.74 1.195-2.845 1.195h-9.703l7.042-7.105zM151.526 12.591C149.215 10.199 146.423 9 143.145 9c-3.254 0-6.037 1.199-8.354 3.591-2.311 2.395-3.47 5.27-3.47 8.627 0 1.13-.389 2.094-1.17 2.888-.779.794-1.706 1.195-2.787 1.195h-3.934v-4.083c0-3.358-1.16-6.232-3.472-8.627C117.643 10.199 114.85 9 111.578 9c-3.26 0-6.041 1.199-8.36 3.591-2.313 2.395-3.472 5.27-3.472 8.627 0 3.374 1.159 6.254 3.472 8.635 2.319 2.387 5.1 3.581 8.36 3.581h3.954v1.347c0 1.135-.385 2.096-1.155 2.894-.767.793-1.707 1.19-2.8 1.19H86V47h25.578c3.272 0 6.065-1.191 8.38-3.576 2.312-2.385 3.472-5.265 3.472-8.643v-1.347h3.958c3.006-.01 5.626-1.041 7.867-3.098 2.243 2.064 4.875 3.098 7.89 3.098 3.278 0 6.07-1.194 8.38-3.581 2.317-2.381 3.475-5.26 3.475-8.635 0-3.358-1.158-6.232-3.474-8.627zm-35.994 12.71h-3.954c-1.083 0-2.007-.401-2.78-1.195-.774-.794-1.157-1.758-1.157-2.888 0-1.116.383-2.067 1.158-2.864.772-.793 1.696-1.188 2.779-1.188 1.092 0 2.032.395 2.8 1.188.769.797 1.154 1.748 1.154 2.864V25.3zm30.42-1.195c-.772.794-1.705 1.195-2.807 1.195-1.075 0-2.004-.401-2.774-1.195-.769-.794-1.156-1.758-1.156-2.888 0-1.116.387-2.067 1.156-2.864.77-.793 1.699-1.188 2.774-1.188 1.102 0 2.035.395 2.806 1.188a3.97 3.97 0 0 1 1.157 2.864c0 1.13-.386 2.094-1.157 2.888zM76 42l-6 2 6 2zM78 41.544h.073v3.931L84 47v-7z"/>
    </g>
</svg>
