<svg xmlns="http://www.w3.org/2000/svg" xmlns:xlink="http://www.w3.org/1999/xlink" version="1.1" style="" xml:space="preserve" width="528.438355734881" height="427.06849275697436"><rect id="backgroundrect" width="100%" height="100%" x="0" y="0" fill="none" stroke="none" class="" style=""/>


















<g class="currentLayer" style=""><title>Layer 1</title><g id="svg_1" class="" stroke="#ffffff" stroke-opacity="1" fill="#ffffff" fill-opacity="1">
	<g id="svg_2" stroke="#ffffff" stroke-opacity="1" fill="#ffffff" fill-opacity="1">
		<path d="M513.6093151664734,201.73210900115967 l-118.4,-125.44 c-7.277,-7.718 -19.424,-8.07 -27.142,-0.787 c-7.706,7.277 -8.064,19.43 -0.781,27.142 l105.965,112.256 L367.2863151664734,327.17210900115964 c-7.283,7.712 -6.925,19.859 0.781,27.142 c3.712,3.501 8.454,5.235 13.178,5.235 c5.101,0 10.195,-2.022 13.965,-6.01 l118.4,-125.446 C520.5913151664734,220.6891090011597 520.5913151664734,209.13010900115967 513.6093151664734,201.73210900115967 z" id="svg_3" stroke="#ffffff" stroke-opacity="1" fill="#ffffff" fill-opacity="1"/>
	</g>
</g><g id="svg_4" class="" fill="#ffffff" fill-opacity="1">
	<g id="svg_5" fill="#ffffff" fill-opacity="1">
		<path d="M158.4153151664734,327.16610900115967 L52.457315166473386,214.90310900115966 l105.958,-112.262 c7.277,-7.712 6.925,-19.866 -0.787,-27.142 c-7.706,-7.277 -19.866,-6.925 -27.142,0.787 l-118.4,125.44 c-6.982,7.398 -6.982,18.963 0,26.362 L130.4923151664734,353.53410900115966 c3.776,4 8.864,6.016 13.965,6.016 c4.723,0 9.466,-1.741 13.171,-5.242 C165.34731516647338,347.0311090011597 165.69231516647338,334.87810900115966 158.4153151664734,327.16610900115967 z" id="svg_6" fill="#ffffff" fill-opacity="1"/>
	</g>
</g><g id="svg_7" class="" fill="#ffffff" fill-opacity="1">
	<g id="svg_8" fill="#ffffff" fill-opacity="1">
		<path d="M293.91031516647337,11.60110900115967 c-10.477,-1.5870000000000002 -20.282,5.606 -21.882,16.083 l-56.32,368.64 c-1.6,10.483 5.6,20.282 16.083,21.882 c0.986,0.1470000000000002 1.9580000000000002,0.21800000000000044 2.925,0.21800000000000044 c9.325,0 17.504,-6.803 18.957,-16.301 l56.32,-368.64 C311.5933151664734,22.999109001159667 304.39331516647337,13.201109001159665 293.91031516647337,11.60110900115967 z" id="svg_9" fill="#ffffff" fill-opacity="1"/>
	</g>
</g><g id="svg_10" class="" fill="#ffffff" fill-opacity="1">
</g><g id="svg_11" class="" fill="#ffffff" fill-opacity="1">
</g><g id="svg_12" class="" fill="#ffffff" fill-opacity="1">
</g><g id="svg_13" class="" fill="#ffffff" fill-opacity="1">
</g><g id="svg_14" class="" fill="#ffffff" fill-opacity="1">
</g><g id="svg_15" class="" fill="#ffffff" fill-opacity="1">
</g><g id="svg_16" class="" fill="#ffffff" fill-opacity="1">
</g><g id="svg_17" class="" fill="#ffffff" fill-opacity="1">
</g><g id="svg_18" class="" fill="#ffffff" fill-opacity="1">
</g><g id="svg_19" class="" fill="#ffffff" fill-opacity="1">
</g><g id="svg_20" class="" fill="#ffffff" fill-opacity="1">
</g><g id="svg_21" class="" fill="#ffffff" fill-opacity="1">
</g><g id="svg_22" class="" fill="#ffffff" fill-opacity="1">
</g><g id="svg_23" class="" fill="#ffffff" fill-opacity="1">
</g><g id="svg_24" class="" fill="#ffffff" fill-opacity="1">
</g></g></svg>