<svg xmlns="http://www.w3.org/2000/svg" height="512" width="337"><rect id="backgroundrect" width="100%" height="100%" x="0" y="0" fill="none" stroke="none"/><g class="currentLayer" style=""><title>Layer 1</title><g fill-rule="evenodd" id="svg_1" class="selected" fill-opacity="1" fill="#010544"><path d="m337.039062,100.152344461936 c-0.003906000000000001,-0.10937500000000001 -0.007812000000000002,-0.21875000000000003 -0.015624000000000002,-0.32812500000000006 c-0.03125000000000001,-0.43359400000000003 -0.07421900000000001,-0.8593750000000001 -0.16015700000000002,-1.28125 c0,0 0,0 0,-0.003907000000000001 c-0.08593700000000001,-0.4218740000000001 -0.20703100000000002,-0.8398430000000001 -0.34375000000000006,-1.2460930000000001 c-0.03515600000000001,-0.10156300000000001 -0.070312,-0.203125 -0.10937500000000001,-0.30468800000000007 c-0.14453100000000002,-0.38671900000000003 -0.30859400000000003,-0.7656250000000002 -0.49609400000000003,-1.132812 c-0.011718000000000003,-0.019531000000000003 -0.019531000000000003,-0.03906300000000001 -0.03125000000000001,-0.05859400000000001 c-0.203124,-0.38281300000000007 -0.43750000000000006,-0.7460940000000001 -0.6914060000000001,-1.101563 c-0.06250000000000001,-0.08984300000000002 -0.12890600000000002,-0.17578100000000002 -0.19531200000000004,-0.265624 c-0.269532,-0.351563 -0.550782,-0.6914070000000001 -0.8671880000000001,-1.007813 l-90.492187,-90.492187 c-0.31640700000000005,-0.31640700000000005 -0.6562500000000001,-0.5976570000000001 -1.007813,-0.8671880000000001 c-0.08984400000000002,-0.06640600000000002 -0.179687,-0.13671900000000003 -0.26953099999999997,-0.19921900000000006 c-0.35546900000000003,-0.253906 -0.7148440000000001,-0.488281 -1.09375,-0.6875000000000001 c-0.027344000000000007,-0.015625000000000003 -0.05468700000000001,-0.023437000000000006 -0.07812500000000003,-0.039062000000000006 c-0.35937500000000006,-0.18750000000000003 -0.7343750000000001,-0.34765700000000005 -1.113281,-0.49218800000000007 c-0.10546900000000001,-0.039062000000000006 -0.20703100000000002,-0.07421900000000001 -0.31640700000000005,-0.10937500000000001 c-0.40625,-0.13671800000000003 -0.816406,-0.25781200000000004 -1.242187,-0.34375000000000006 c-0.003906000000000001,0 -0.007813000000000002,0 -0.007813000000000002,0 c-0.41796800000000006,-0.08203100000000002 -0.8437500000000001,-0.12890600000000002 -1.273437,-0.16015600000000002 c-0.10937500000000001,-0.003906200000000001 -0.21875000000000003,-0.011718800000000003 -0.32812500000000006,-0.015625000000000003 c-0.11328100000000002,-0.003906200000000001 -0.22656200000000004,-0.015625000000000003 -0.3398440000000001,-0.015625000000000003 h-226.566406 c-5.523438,0 -10,4.476562 -10,10 v428.023438 c0,5.5234369999999995 4.476562,10 10,10 h150.554688 v53.976562 c0,3.6367190000000003 1.976562,6.988281 5.160156,8.75 c3.1875,1.7617190000000003 7.074218,1.65625 10.15625,-0.27734400000000003 l38.085937,-23.894531 l38.085938,23.894531 c1.6210930000000001,1.015625 3.46875,1.527344 5.316406,1.527344 c1.664063,0 3.332031,-0.41406200000000004 4.839844,-1.246094 c3.183593,-1.7617180000000001 5.160156,-5.113281 5.160156,-8.753906 v-53.976562 h59.695313 c5.5234369999999995,0 10,-4.476563 10,-10 v-337.53125 c0,-0.11328200000000002 -0.011719000000000004,-0.22656300000000004 -0.015626,-0.3398440000000001 zm-90.472656,-66.007813 l56.347656,56.347657 h-56.347656 zm-90.945312,274.726563 c-0.7031250000000001,-1.910156 -1.8476560000000002,-5.03125 -1.875,-6.308594 c0.78125,-0.9687500000000001 3.492187,-2.6835940000000003 5.152344,-3.7304690000000003 c3.5625,-2.25 7.6015619999999995,-4.804687 10.53125,-8.796875 c2.957031,-4.035156 4.160156,-8.695312 5.222656,-12.804687 c0.46484400000000003,-1.796875 1.214844,-4.699219 1.8554680000000001,-5.796875 c0.351563,-0.07421900000000001 1.089844,-0.17968800000000001 2.476563,-0.17968800000000001 c1.113281,0 2.359375,0.06250000000000001 3.6796870000000004,0.12890600000000002 c1.5156260000000001,0.07421900000000001 3.078126,0.15234400000000003 4.7109380000000005,0.15234400000000003 c3.601562,0 6.5078119999999995,-0.40625 9.144531,-1.285156 c4.605469,-1.53125 8.289063,-4.496094 11.539063,-7.113281 c1.796875,-1.445313 4.804687,-3.867188 5.8515619999999995,-4.015625 c1.144532,0.14843700000000004 4.148438,2.570312 5.945313,4.015625 c3.25,2.617187 6.9375,5.582031 11.542969,7.113281 c2.636718,0.8789060000000001 5.5390619999999995,1.285156 9.144531,1.285156 c1.6289060000000002,0 3.195312,-0.07812500000000003 4.707031,-0.15234400000000003 c1.3203120000000002,-0.06640600000000002 2.5664059999999997,-0.12890600000000002 3.6835940000000003,-0.12890600000000002 c1.3867180000000001,0 2.121094,0.10156300000000001 2.476562,0.17968800000000001 c0.6406250000000002,1.097656 1.390625,4 1.851563,5.796875 c1.0625,4.109375 2.2695309999999997,8.769531 5.226562,12.804687 c2.925781,3.992188 6.964844,6.542969 10.53125,8.796875 c1.65625,1.050781 4.3671880000000005,2.7617190000000003 5.148438,3.7304690000000003 c-0.027344000000000007,1.277344 -1.171875,4.3984380000000005 -1.8710940000000003,6.308594 c-1.488281,4.050781 -3.171875,8.644531 -3.171875,13.734375 c0,5.089843 1.6835940000000003,9.683593 3.1679690000000003,13.738281 c0.7031250000000001,1.910156 1.8476560000000002,5.03125 1.875,6.308594 c-0.78125,0.9687500000000001 -3.492188,2.6796870000000004 -5.148438,3.730468 c-3.5664059999999997,2.25 -7.605469,4.8046880000000005 -10.53125,8.796876 c-2.957031,4.035156 -4.164062,8.695312 -5.226562,12.804687 c-0.460938,1.792969 -1.214844,4.699219 -1.851563,5.796875 c-0.35546800000000006,0.07421900000000001 -1.089844,0.17968800000000001 -2.476562,0.17968800000000001 c-1.117188,0 -2.363282,-0.06250000000000001 -3.6835940000000003,-0.12890700000000002 c-1.511719,-0.07421900000000001 -3.078125,-0.15234300000000003 -4.707031,-0.15234300000000003 c-3.6054690000000003,0 -6.507813,0.40625 -9.144531,1.285156 c-4.605469,1.53125 -8.292969,4.5 -11.542969,7.113281 c-1.7695310000000002,1.429687 -4.722657,3.800781 -5.8984380000000005,4.011719 c-1.175781,-0.21093800000000004 -4.125,-2.582032 -5.894531,-4.011719 c-3.253906,-2.613281 -6.9375,-5.582031 -11.542969,-7.113281 c-2.6367190000000003,-0.8789060000000001 -5.542969,-1.285156 -9.144531,-1.285156 c-1.6289060000000002,0 -3.195312,0.07812400000000003 -4.7109380000000005,0.15234300000000003 c-1.3164060000000002,0.06640700000000001 -2.5625,0.12890700000000002 -3.6796870000000004,0.12890700000000002 c-1.386719,0 -2.121094,-0.10546900000000001 -2.476563,-0.17968800000000001 c-0.6406240000000002,-1.097656 -1.390624,-4 -1.8554680000000001,-5.796875 c-1.058594,-4.109375 -2.265625,-8.769531 -5.222656,-12.804687 c-2.925782,-3.992188 -6.964844,-6.546876 -10.53125,-8.796876 c-1.65625,-1.046874 -4.3671880000000005,-2.761718 -5.148438,-3.730468 c0.027344000000000007,-1.273438 1.171875,-4.3984380000000005 1.8710940000000003,-6.308594 c1.488281,-4.050781 3.171875,-8.644531 3.171875,-13.734375 c0,-5.09375 -1.6875,-9.6875 -3.171875,-13.738281 zm91.738281,175.050781 l-28.085937,-17.621094 c-3.25,-2.035156 -7.3828130000000005,-2.035156 -10.632813,0 l-28.085937,17.621094 v-89.992187 c1.0625,-0.03125000000000001 2.105468,-0.070313 3.117187,-0.12109400000000002 c1.324219,-0.070313 2.5742190000000003,-0.13281300000000001 3.703125,-0.13281300000000001 c1.773438,0 2.53125,0.16406300000000004 2.8242190000000003,0.261719 c1.191406,0.39843800000000007 3.4804690000000003,2.242188 5.320312,3.722656 c4.667969,3.757813 10.476563,8.433594 18.4375,8.433594 c7.9609380000000005,0 13.769531,-4.675781000000001 18.4375,-8.433594 c1.8398440000000003,-1.4804680000000001 4.128907,-3.324218 5.316407,-3.71875 c0.2968740000000001,-0.09765600000000003 1.054687,-0.261718 2.828124,-0.261718 c1.128907,0 2.378907,0.06250000000000001 3.703126,0.12890600000000002 c1.011718,0.05078100000000001 2.054687,0.09375000000000003 3.113281,0.12109400000000002 v89.992187 zm20,-55.898437 v-42.152344 c2.9726559999999997,-4.039063 4.214844,-8.820313 5.265625,-12.882813 c0.5507810000000001,-2.132812 1.304688,-5.050781 1.992188,-5.984375 c0.6835930000000001,-0.9375 3.226562,-2.542968 5.082031,-3.7148440000000003 c4.921875,-3.109374 11.046875,-6.980468 13.480469,-14.300781 c2.40625,-7.222656 -0.09765700000000002,-14.046875 -2.109376,-19.53125 c-0.9140619999999999,-2.488281 -1.9492180000000001,-5.3125 -1.9492180000000001,-6.8515619999999995 c0,-1.539063 1.035156,-4.359375 1.9492180000000001,-6.847657 c2.011719,-5.484374 4.515626,-12.3125 2.109376,-19.535156 c-2.4335940000000003,-7.316406 -8.558594,-11.1875 -13.480469,-14.296875 c-1.855469,-1.171875 -4.3984380000000005,-2.78125 -5.082031,-3.710937 c-0.6875000000000001,-0.9375 -1.441407,-3.8554690000000003 -1.992188,-5.988282 c-1.4375,-5.566406 -3.226562,-12.496093 -9.351562,-16.988281 c-4.875,-3.570312 -10.519532,-3.984375 -14.34375,-3.984375 c-1.617188,0 -3.179688,0.07812500000000003 -4.6875,0.15625000000000003 c-1.324219,0.06640600000000002 -2.5742190000000003,0.12890600000000002 -3.6992190000000003,0.12890600000000002 c-1.777344,0 -2.535157,-0.16406200000000004 -2.828125,-0.261718 c-1.1875,-0.39453200000000005 -3.476563,-2.238282 -5.316406,-3.722656 c-4.671876,-3.753907 -10.480469,-8.429688 -18.441407,-8.429688 c-7.957031,0 -13.769531,4.675781000000001 -18.4375,8.429688 c-1.8398430000000001,1.4804680000000001 -4.128906,3.328124 -5.316406,3.722656 c-0.29296900000000003,0.09765600000000003 -1.054687,0.261718 -2.828125,0.261718 c-1.125,0 -2.378906,-0.06250000000000001 -3.703125,-0.132812 c-1.507813,-0.07421900000000001 -3.066406,-0.15234400000000003 -4.6875,-0.15234400000000003 c-3.820313,0 -9.464844,0.414063 -14.335937,3.984375 c-6.128907,4.4921880000000005 -7.921876,11.421875 -9.359376,16.988281 c-0.5507810000000001,2.132813 -1.304687,5.050782 -1.988281,5.984376 c-0.6875000000000001,0.933593 -3.2304690000000003,2.542968 -5.085937,3.714843 c-4.921875,3.109375 -11.042969,6.980469 -13.480469,14.296875 c-2.40625,7.226563 0.09765600000000003,14.050782 2.109375,19.535156 c0.9140619999999999,2.488282 1.949219,5.308594 1.949219,6.847657 c0,1.539062 -1.035157,4.363281 -1.949219,6.8515619999999995 c-2.011719,5.484375 -4.515625,12.308594 -2.109375,19.535157 c2.4375,7.316406 8.5625,11.1875 13.480469,14.296874 c1.859375,1.171876 4.398437,2.78125 5.085937,3.7148440000000003 c0.6835940000000001,0.933594 1.4375,3.851563 1.988281,5.984375 c1.050782,4.0625 2.296876,8.847657 5.269532,12.882813 v42.152344 h-140.558594 v-408.023438 h206.566406 v80.492188 c0,5.5234369999999995 4.476563,10 10,10 h80.488282 v317.53125 zm0,0 " id="svg_2" fill="#010544"/><path d="m58.863281,110.492188461936 h128.835938 c5.519531,0 10,-4.476563 10,-10 c0,-5.523438 -4.480469,-10 -10,-10 h-128.835938 c-5.5234369999999995,0 -10,4.476562 -10,10 c0,5.5234369999999995 4.480469,10 10,10 zm0,0 " id="svg_3" fill="#010544"/><path d="m279.308594,140.968750461936 h-220.445313 c-5.5234369999999995,0 -10,4.476562 -10,10 s4.476563,10 10,10 h220.445313 c5.5234369999999995,0 10,-4.476562 10,-10 s-4.476563,-10 -10,-10 zm0,0 " id="svg_4" fill="#010544"/><path d="m239.308594,191.445312461936 h-180.445313 c-5.5234369999999995,0 -10,4.480469 -10,10 c0,5.523438 4.476563,10 10,10 h180.445313 c5.5234369999999995,0 10,-4.476562 10,-10 c0,-5.519531 -4.476563,-10 -10,-10 zm0,0 " id="svg_5" fill="#010544"/><path d="m279.308594,191.445312461936 c-5.507813,0 -10,4.4921880000000005 -10,10 c0,5.507813 4.492187,10 10,10 c5.511718,0 10,-4.492187 10,-10 c0,-5.5078119999999995 -4.488282,-10 -10,-10 zm0,0 " id="svg_6" fill="#010544"/></g></g></svg>