<svg xmlns="http://www.w3.org/2000/svg" xmlns:xlink="http://www.w3.org/1999/xlink" version="1.1" style="enable-background:new 0 0 511.997 511.997;" xml:space="preserve" width="512" height="512"><rect id="backgroundrect" width="100%" height="100%" x="0" y="0" fill="none" stroke="none" class="" style=""/>
















<g class="currentLayer" style=""><title>Layer 1</title><g id="svg_1" class="" fill-opacity="1" fill="#010544">
	<g id="svg_2" fill="#010544">
		<g id="svg_3" fill="#010544">
			<path d="M212.26,390.2404997253418 l-60.331,60.331 c-25.012,25.012 -65.517,25.012 -90.508,0.005000000000000002 c-24.996,-24.996 -24.996,-65.505 -0.005000000000000002,-90.496 l120.683,-120.683 c24.991,-24.992 65.5,-24.992 90.491,0 c8.331,8.331 21.839,8.331 30.17,0 c8.331,-8.331 8.331,-21.839 0,-30.17 c-41.654,-41.654 -109.177,-41.654 -150.831,0 L31.247,329.9094997253418 c-41.654,41.654 -41.654,109.177 0,150.831 c41.649,41.676 109.177,41.676 150.853,0 l60.331,-60.331 c8.331,-8.331 8.331,-21.839 0,-30.17 S220.591,381.9094997253418 212.26,390.2404997253418 z" id="svg_4" fill="#010544"/>
			<path d="M480.751,31.240499725341795 c-41.654,-41.654 -109.199,-41.654 -150.853,0 l-72.384,72.384 c-8.331,8.331 -8.331,21.839 0,30.17 c8.331,8.331 21.839,8.331 30.17,0 l72.384,-72.384 c24.991,-24.992 65.521,-24.992 90.513,0 c24.991,24.991 24.991,65.5 0,90.491 L317.845,284.6384997253418 c-24.992,24.992 -65.5,24.992 -90.491,0 c-8.331,-8.331 -21.839,-8.331 -30.17,0 s-8.331,21.839 0,30.17 c41.654,41.654 109.177,41.654 150.831,0 l132.736,-132.736 C522.405,140.4184997253418 522.405,72.8944997253418 480.751,31.240499725341795 z" id="svg_5" fill="#010544"/>
		</g>
	</g>
</g><g id="svg_6" class="" fill-opacity="1" fill="#010544">
</g><g id="svg_7" class="" fill-opacity="1" fill="#010544">
</g><g id="svg_8" class="" fill-opacity="1" fill="#010544">
</g><g id="svg_9" class="" fill-opacity="1" fill="#010544">
</g><g id="svg_10" class="" fill-opacity="1" fill="#010544">
</g><g id="svg_11" class="" fill-opacity="1" fill="#010544">
</g><g id="svg_12" class="" fill-opacity="1" fill="#010544">
</g><g id="svg_13" class="" fill-opacity="1" fill="#010544">
</g><g id="svg_14" class="" fill-opacity="1" fill="#010544">
</g><g id="svg_15" class="" fill-opacity="1" fill="#010544">
</g><g id="svg_16" class="" fill-opacity="1" fill="#010544">
</g><g id="svg_17" class="" fill-opacity="1" fill="#010544">
</g><g id="svg_18" class="" fill-opacity="1" fill="#010544">
</g><g id="svg_19" class="" fill-opacity="1" fill="#010544">
</g><g id="svg_20" class="" fill-opacity="1" fill="#010544">
</g></g></svg>