<svg xmlns="http://www.w3.org/2000/svg" width="25" height="21" viewBox="0 0 25 21">
    <path fill="#FFF" fill-rule="nonzero" d="M22.422 5.652v.645c0 1.758-.322 3.486-.967 5.185a15.863 15.863 0 0 1-2.754 4.659c-1.191 1.406-2.734 2.548-4.629 3.427-1.894.88-3.974 1.319-6.24 1.319-2.852 0-5.469-.762-7.852-2.285.391.039.801.058 1.23.058 2.384 0 4.513-.722 6.388-2.168-1.133-.039-2.139-.39-3.018-1.055-.879-.664-1.475-1.503-1.787-2.519a3.913 3.913 0 0 0 2.285-.117c-1.172-.235-2.148-.82-2.93-1.758-.72-.865-1.109-1.847-1.164-2.946l-.007-.335c.742.39 1.523.605 2.343.644-1.523-1.054-2.285-2.48-2.285-4.277 0-.938.235-1.797.703-2.578A14.734 14.734 0 0 0 6.396 5.3c1.817.937 3.78 1.465 5.89 1.582a5.961 5.961 0 0 1-.118-1.172c0-1.406.498-2.607 1.494-3.604.996-.996 2.197-1.494 3.604-1.494 1.484 0 2.734.528 3.75 1.582a10.73 10.73 0 0 0 3.28-1.23c-.39 1.21-1.151 2.148-2.284 2.812A10.839 10.839 0 0 0 25 3.016a11.01 11.01 0 0 1-2.578 2.636z"/>
</svg>
