<svg xmlns="http://www.w3.org/2000/svg" width="25" height="26" viewBox="0 0 25 26">
    <path fill="#FFF" fill-rule="nonzero" d="M19.14 14.977c0-.86-.156-1.495-.468-1.905-.313-.41-.899-.615-1.758-.615-1.055 0-1.797.313-2.227.938-.43.625-.644 1.503-.644 2.636v8.555a.634.634 0 0 1-.176.469.634.634 0 0 1-.469.175H8.945a.664.664 0 0 1-.44-.175.586.586 0 0 1-.204-.47V8.766c0-.156.068-.302.205-.439.137-.137.283-.205.44-.205h4.335c.156 0 .283.04.381.117a.628.628 0 0 1 .205.352v.293c.04.078.059.215.059.41 1.094-1.055 2.578-1.582 4.453-1.582 2.07 0 3.691.527 4.863 1.582C24.414 10.348 25 11.891 25 13.922v10.664a.586.586 0 0 1-.205.469.664.664 0 0 1-.44.175h-4.57a.664.664 0 0 1-.44-.175.586.586 0 0 1-.204-.47v-9.608zM6.017 3.317c0 .82-.293 1.533-.88 2.138a2.864 2.864 0 0 1-2.138.908c-.84 0-1.553-.302-2.139-.908A3.009 3.009 0 0 1-.02 3.287c0-.84.293-1.553.88-2.139C1.444.563 2.157.27 2.997.27c.84 0 1.553.292 2.139.878.586.586.879 1.309.879 2.168zm-.118 5.449v15.82a.586.586 0 0 1-.205.469.664.664 0 0 1-.44.175H.802a.634.634 0 0 1-.469-.175.634.634 0 0 1-.176-.47V8.766c0-.156.059-.302.176-.439a.586.586 0 0 1 .469-.205h4.453c.156 0 .303.068.44.205.136.137.204.283.204.44z"/>
</svg>
